<?xml version="1.0" encoding="UTF-8" standalone="no"?><svg xmlns="http://www.w3.org/2000/svg" xmlns:xlink="http://www.w3.org/1999/xlink" contentScriptType="application/ecmascript" contentStyleType="text/css" height="347px" preserveAspectRatio="none" style="width:962px;height:347px;background:#00000000;" version="1.1" viewBox="0 0 962 347" width="962px" zoomAndPan="magnify"><defs/><g><line style="stroke:#F2F2F2;stroke-width:1.0;" x1="0" x2="0" y1="0" y2="329.6563"/><line style="stroke:#F2F2F2;stroke-width:1.0;" x1="16" x2="16" y1="0" y2="329.6563"/><line style="stroke:#F2F2F2;stroke-width:1.0;" x1="32" x2="32" y1="0" y2="329.6563"/><line style="stroke:#F2F2F2;stroke-width:1.0;" x1="48" x2="48" y1="0" y2="329.6563"/><line style="stroke:#F2F2F2;stroke-width:1.0;" x1="64" x2="64" y1="0" y2="329.6563"/><line style="stroke:#F2F2F2;stroke-width:1.0;" x1="80" x2="80" y1="0" y2="329.6563"/><line style="stroke:#F2F2F2;stroke-width:1.0;" x1="96" x2="96" y1="0" y2="329.6563"/><line style="stroke:#F2F2F2;stroke-width:1.0;" x1="112" x2="112" y1="0" y2="329.6563"/><line style="stroke:#F2F2F2;stroke-width:1.0;" x1="128" x2="128" y1="0" y2="329.6563"/><line style="stroke:#F2F2F2;stroke-width:1.0;" x1="144" x2="144" y1="0" y2="329.6563"/><line style="stroke:#F2F2F2;stroke-width:1.0;" x1="160" x2="160" y1="0" y2="329.6563"/><line style="stroke:#F2F2F2;stroke-width:1.0;" x1="176" x2="176" y1="0" y2="329.6563"/><line style="stroke:#F2F2F2;stroke-width:1.0;" x1="192" x2="192" y1="0" y2="329.6563"/><line style="stroke:#F2F2F2;stroke-width:1.0;" x1="208" x2="208" y1="0" y2="329.6563"/><line style="stroke:#F2F2F2;stroke-width:1.0;" x1="224" x2="224" y1="0" y2="329.6563"/><line style="stroke:#F2F2F2;stroke-width:1.0;" x1="240" x2="240" y1="0" y2="329.6563"/><line style="stroke:#F2F2F2;stroke-width:1.0;" x1="256" x2="256" y1="0" y2="329.6563"/><line style="stroke:#F2F2F2;stroke-width:1.0;" x1="272" x2="272" y1="0" y2="329.6563"/><line style="stroke:#F2F2F2;stroke-width:1.0;" x1="288" x2="288" y1="0" y2="329.6563"/><line style="stroke:#F2F2F2;stroke-width:1.0;" x1="304" x2="304" y1="0" y2="329.6563"/><line style="stroke:#F2F2F2;stroke-width:1.0;" x1="320" x2="320" y1="0" y2="329.6563"/><line style="stroke:#F2F2F2;stroke-width:1.0;" x1="336" x2="336" y1="0" y2="329.6563"/><line style="stroke:#F2F2F2;stroke-width:1.0;" x1="352" x2="352" y1="0" y2="329.6563"/><line style="stroke:#F2F2F2;stroke-width:1.0;" x1="368" x2="368" y1="0" y2="329.6563"/><line style="stroke:#F2F2F2;stroke-width:1.0;" x1="384" x2="384" y1="0" y2="329.6563"/><line style="stroke:#F2F2F2;stroke-width:1.0;" x1="400" x2="400" y1="0" y2="329.6563"/><line style="stroke:#F2F2F2;stroke-width:1.0;" x1="416" x2="416" y1="0" y2="329.6563"/><line style="stroke:#F2F2F2;stroke-width:1.0;" x1="432" x2="432" y1="0" y2="329.6563"/><line style="stroke:#F2F2F2;stroke-width:1.0;" x1="448" x2="448" y1="0" y2="329.6563"/><line style="stroke:#F2F2F2;stroke-width:1.0;" x1="464" x2="464" y1="0" y2="329.6563"/><line style="stroke:#F2F2F2;stroke-width:1.0;" x1="480" x2="480" y1="0" y2="329.6563"/><line style="stroke:#F2F2F2;stroke-width:1.0;" x1="496" x2="496" y1="0" y2="329.6563"/><line style="stroke:#F2F2F2;stroke-width:1.0;" x1="512" x2="512" y1="0" y2="329.6563"/><line style="stroke:#F2F2F2;stroke-width:1.0;" x1="528" x2="528" y1="0" y2="329.6563"/><line style="stroke:#F2F2F2;stroke-width:1.0;" x1="544" x2="544" y1="0" y2="329.6563"/><line style="stroke:#F2F2F2;stroke-width:1.0;" x1="560" x2="560" y1="0" y2="329.6563"/><line style="stroke:#F2F2F2;stroke-width:1.0;" x1="576" x2="576" y1="0" y2="329.6563"/><line style="stroke:#F2F2F2;stroke-width:1.0;" x1="592" x2="592" y1="0" y2="329.6563"/><line style="stroke:#F2F2F2;stroke-width:1.0;" x1="608" x2="608" y1="0" y2="329.6563"/><line style="stroke:#F2F2F2;stroke-width:1.0;" x1="624" x2="624" y1="0" y2="329.6563"/><line style="stroke:#F2F2F2;stroke-width:1.0;" x1="640" x2="640" y1="0" y2="329.6563"/><line style="stroke:#F2F2F2;stroke-width:1.0;" x1="656" x2="656" y1="0" y2="329.6563"/><line style="stroke:#F2F2F2;stroke-width:1.0;" x1="672" x2="672" y1="0" y2="329.6563"/><line style="stroke:#F2F2F2;stroke-width:1.0;" x1="688" x2="688" y1="0" y2="329.6563"/><line style="stroke:#F2F2F2;stroke-width:1.0;" x1="704" x2="704" y1="0" y2="329.6563"/><line style="stroke:#F2F2F2;stroke-width:1.0;" x1="720" x2="720" y1="0" y2="329.6563"/><line style="stroke:#F2F2F2;stroke-width:1.0;" x1="736" x2="736" y1="0" y2="329.6563"/><line style="stroke:#F2F2F2;stroke-width:1.0;" x1="752" x2="752" y1="0" y2="329.6563"/><line style="stroke:#F2F2F2;stroke-width:1.0;" x1="768" x2="768" y1="0" y2="329.6563"/><line style="stroke:#F2F2F2;stroke-width:1.0;" x1="784" x2="784" y1="0" y2="329.6563"/><line style="stroke:#F2F2F2;stroke-width:1.0;" x1="800" x2="800" y1="0" y2="329.6563"/><line style="stroke:#F2F2F2;stroke-width:1.0;" x1="816" x2="816" y1="0" y2="329.6563"/><line style="stroke:#F2F2F2;stroke-width:1.0;" x1="832" x2="832" y1="0" y2="329.6563"/><line style="stroke:#F2F2F2;stroke-width:1.0;" x1="848" x2="848" y1="0" y2="329.6563"/><line style="stroke:#F2F2F2;stroke-width:1.0;" x1="864" x2="864" y1="0" y2="329.6563"/><line style="stroke:#F2F2F2;stroke-width:1.0;" x1="880" x2="880" y1="0" y2="329.6563"/><line style="stroke:#F2F2F2;stroke-width:1.0;" x1="896" x2="896" y1="0" y2="329.6563"/><line style="stroke:#F2F2F2;stroke-width:1.0;" x1="912" x2="912" y1="0" y2="329.6563"/><line style="stroke:#F2F2F2;stroke-width:1.0;" x1="928" x2="928" y1="0" y2="329.6563"/><line style="stroke:#F2F2F2;stroke-width:1.0;" x1="944" x2="944" y1="0" y2="329.6563"/><line style="stroke:#F2F2F2;stroke-width:1.0;" x1="960" x2="960" y1="0" y2="329.6563"/><text fill="#808080" font-family="Serif" font-size="10" lengthAdjust="spacing" textLength="6" x="5" y="9.2822">1</text><text fill="#808080" font-family="Serif" font-size="10" lengthAdjust="spacing" textLength="6" x="21" y="9.2822">2</text><text fill="#808080" font-family="Serif" font-size="10" lengthAdjust="spacing" textLength="6" x="37" y="9.2822">3</text><text fill="#808080" font-family="Serif" font-size="10" lengthAdjust="spacing" textLength="6" x="53" y="9.2822">4</text><text fill="#808080" font-family="Serif" font-size="10" lengthAdjust="spacing" textLength="6" x="69" y="9.2822">5</text><text fill="#808080" font-family="Serif" font-size="10" lengthAdjust="spacing" textLength="6" x="85" y="9.2822">6</text><text fill="#808080" font-family="Serif" font-size="10" lengthAdjust="spacing" textLength="6" x="101" y="9.2822">7</text><text fill="#808080" font-family="Serif" font-size="10" lengthAdjust="spacing" textLength="6" x="117" y="9.2822">8</text><text fill="#808080" font-family="Serif" font-size="10" lengthAdjust="spacing" textLength="6" x="133" y="9.2822">9</text><text fill="#808080" font-family="Serif" font-size="10" lengthAdjust="spacing" textLength="12" x="146" y="9.2822">10</text><text fill="#808080" font-family="Serif" font-size="10" lengthAdjust="spacing" textLength="12" x="162" y="9.2822">11</text><text fill="#808080" font-family="Serif" font-size="10" lengthAdjust="spacing" textLength="12" x="178" y="9.2822">12</text><text fill="#808080" font-family="Serif" font-size="10" lengthAdjust="spacing" textLength="12" x="194" y="9.2822">13</text><text fill="#808080" font-family="Serif" font-size="10" lengthAdjust="spacing" textLength="12" x="210" y="9.2822">14</text><text fill="#808080" font-family="Serif" font-size="10" lengthAdjust="spacing" textLength="12" x="226" y="9.2822">15</text><text fill="#808080" font-family="Serif" font-size="10" lengthAdjust="spacing" textLength="12" x="242" y="9.2822">16</text><text fill="#808080" font-family="Serif" font-size="10" lengthAdjust="spacing" textLength="12" x="258" y="9.2822">17</text><text fill="#808080" font-family="Serif" font-size="10" lengthAdjust="spacing" textLength="12" x="274" y="9.2822">18</text><text fill="#808080" font-family="Serif" font-size="10" lengthAdjust="spacing" textLength="12" x="290" y="9.2822">19</text><text fill="#808080" font-family="Serif" font-size="10" lengthAdjust="spacing" textLength="12" x="306" y="9.2822">20</text><text fill="#808080" font-family="Serif" font-size="10" lengthAdjust="spacing" textLength="12" x="322" y="9.2822">21</text><text fill="#808080" font-family="Serif" font-size="10" lengthAdjust="spacing" textLength="12" x="338" y="9.2822">22</text><text fill="#808080" font-family="Serif" font-size="10" lengthAdjust="spacing" textLength="12" x="354" y="9.2822">23</text><text fill="#808080" font-family="Serif" font-size="10" lengthAdjust="spacing" textLength="12" x="370" y="9.2822">24</text><text fill="#808080" font-family="Serif" font-size="10" lengthAdjust="spacing" textLength="12" x="386" y="9.2822">25</text><text fill="#808080" font-family="Serif" font-size="10" lengthAdjust="spacing" textLength="12" x="402" y="9.2822">26</text><text fill="#808080" font-family="Serif" font-size="10" lengthAdjust="spacing" textLength="12" x="418" y="9.2822">27</text><text fill="#808080" font-family="Serif" font-size="10" lengthAdjust="spacing" textLength="12" x="434" y="9.2822">28</text><text fill="#808080" font-family="Serif" font-size="10" lengthAdjust="spacing" textLength="12" x="450" y="9.2822">29</text><text fill="#808080" font-family="Serif" font-size="10" lengthAdjust="spacing" textLength="12" x="466" y="9.2822">30</text><text fill="#808080" font-family="Serif" font-size="10" lengthAdjust="spacing" textLength="12" x="482" y="9.2822">31</text><text fill="#808080" font-family="Serif" font-size="10" lengthAdjust="spacing" textLength="12" x="498" y="9.2822">32</text><text fill="#808080" font-family="Serif" font-size="10" lengthAdjust="spacing" textLength="12" x="514" y="9.2822">33</text><text fill="#808080" font-family="Serif" font-size="10" lengthAdjust="spacing" textLength="12" x="530" y="9.2822">34</text><text fill="#808080" font-family="Serif" font-size="10" lengthAdjust="spacing" textLength="12" x="546" y="9.2822">35</text><text fill="#808080" font-family="Serif" font-size="10" lengthAdjust="spacing" textLength="12" x="562" y="9.2822">36</text><text fill="#808080" font-family="Serif" font-size="10" lengthAdjust="spacing" textLength="12" x="578" y="9.2822">37</text><text fill="#808080" font-family="Serif" font-size="10" lengthAdjust="spacing" textLength="12" x="594" y="9.2822">38</text><text fill="#808080" font-family="Serif" font-size="10" lengthAdjust="spacing" textLength="12" x="610" y="9.2822">39</text><text fill="#808080" font-family="Serif" font-size="10" lengthAdjust="spacing" textLength="12" x="626" y="9.2822">40</text><text fill="#808080" font-family="Serif" font-size="10" lengthAdjust="spacing" textLength="12" x="642" y="9.2822">41</text><text fill="#808080" font-family="Serif" font-size="10" lengthAdjust="spacing" textLength="12" x="658" y="9.2822">42</text><text fill="#808080" font-family="Serif" font-size="10" lengthAdjust="spacing" textLength="12" x="674" y="9.2822">43</text><text fill="#808080" font-family="Serif" font-size="10" lengthAdjust="spacing" textLength="12" x="690" y="9.2822">44</text><text fill="#808080" font-family="Serif" font-size="10" lengthAdjust="spacing" textLength="12" x="706" y="9.2822">45</text><text fill="#808080" font-family="Serif" font-size="10" lengthAdjust="spacing" textLength="12" x="722" y="9.2822">46</text><text fill="#808080" font-family="Serif" font-size="10" lengthAdjust="spacing" textLength="12" x="738" y="9.2822">47</text><text fill="#808080" font-family="Serif" font-size="10" lengthAdjust="spacing" textLength="12" x="754" y="9.2822">48</text><text fill="#808080" font-family="Serif" font-size="10" lengthAdjust="spacing" textLength="12" x="770" y="9.2822">49</text><text fill="#808080" font-family="Serif" font-size="10" lengthAdjust="spacing" textLength="12" x="786" y="9.2822">50</text><text fill="#808080" font-family="Serif" font-size="10" lengthAdjust="spacing" textLength="12" x="802" y="9.2822">51</text><text fill="#808080" font-family="Serif" font-size="10" lengthAdjust="spacing" textLength="12" x="818" y="9.2822">52</text><text fill="#808080" font-family="Serif" font-size="10" lengthAdjust="spacing" textLength="12" x="834" y="9.2822">53</text><text fill="#808080" font-family="Serif" font-size="10" lengthAdjust="spacing" textLength="12" x="850" y="9.2822">54</text><text fill="#808080" font-family="Serif" font-size="10" lengthAdjust="spacing" textLength="12" x="866" y="9.2822">55</text><text fill="#808080" font-family="Serif" font-size="10" lengthAdjust="spacing" textLength="12" x="882" y="9.2822">56</text><text fill="#808080" font-family="Serif" font-size="10" lengthAdjust="spacing" textLength="12" x="898" y="9.2822">57</text><text fill="#808080" font-family="Serif" font-size="10" lengthAdjust="spacing" textLength="12" x="914" y="9.2822">58</text><text fill="#808080" font-family="Serif" font-size="10" lengthAdjust="spacing" textLength="12" x="930" y="9.2822">59</text><text fill="#808080" font-family="Serif" font-size="10" lengthAdjust="spacing" textLength="12" x="946" y="9.2822">60</text><line style="stroke:#F2F2F2;stroke-width:1.0;" x1="0" x2="960" y1="0" y2="0"/><line style="stroke:#F2F2F2;stroke-width:1.0;" x1="0" x2="960" y1="13" y2="13"/><line style="stroke:#5FB8EC;stroke-width:1.5;" x1="151" x2="151" y1="61.6094" y2="72.0117"/><line style="stroke:#5FB8EC;stroke-width:1.5;" x1="151" x2="159" y1="72.0117" y2="72.0117"/><polygon fill="#5FB8EC" points="155,68.0117,155,72.0117,155,76.0117,159,72.0117" style="stroke:#5FB8EC;stroke-width:1.5;"/><line style="stroke:#5FB8EC;stroke-width:1.5;" x1="231" x2="231" y1="109.2188" y2="119.6211"/><line style="stroke:#5FB8EC;stroke-width:1.5;" x1="231" x2="239" y1="119.6211" y2="119.6211"/><polygon fill="#5FB8EC" points="235,115.6211,235,119.6211,235,123.6211,239,119.6211" style="stroke:#5FB8EC;stroke-width:1.5;"/><line style="stroke:#5FB8EC;stroke-width:1.5;" x1="231" x2="231" y1="140.0234" y2="150.4258"/><line style="stroke:#5FB8EC;stroke-width:1.5;" x1="231" x2="239" y1="150.4258" y2="150.4258"/><polygon fill="#5FB8EC" points="235,146.4258,235,150.4258,235,154.4258,239,150.4258" style="stroke:#5FB8EC;stroke-width:1.5;"/><line style="stroke:#5FB8EC;stroke-width:1.5;" x1="151" x2="151" y1="61.6094" y2="167.2305"/><line style="stroke:#5FB8EC;stroke-width:1.5;" x1="151" x2="159" y1="167.2305" y2="167.2305"/><polygon fill="#5FB8EC" points="155,163.2305,155,167.2305,155,171.2305,159,167.2305" style="stroke:#5FB8EC;stroke-width:1.5;"/><line style="stroke:#5FB8EC;stroke-width:1.5;" x1="151" x2="151" y1="187.6328" y2="198.0352"/><line style="stroke:#5FB8EC;stroke-width:1.5;" x1="151" x2="159" y1="198.0352" y2="198.0352"/><polygon fill="#5FB8EC" points="155,194.0352,155,198.0352,155,202.0352,159,198.0352" style="stroke:#5FB8EC;stroke-width:1.5;"/><line style="stroke:#5FB8EC;stroke-width:1.5;" x1="391" x2="391" y1="218.4375" y2="228.8398"/><line style="stroke:#5FB8EC;stroke-width:1.5;" x1="391" x2="399" y1="228.8398" y2="228.8398"/><polygon fill="#5FB8EC" points="395,224.8398,395,228.8398,395,232.8398,399,228.8398" style="stroke:#5FB8EC;stroke-width:1.5;"/><line style="stroke:#5FB8EC;stroke-width:1.5;" x1="551" x2="551" y1="249.2422" y2="259.6445"/><line style="stroke:#5FB8EC;stroke-width:1.5;" x1="551" x2="559" y1="259.6445" y2="259.6445"/><polygon fill="#5FB8EC" points="555,255.6445,555,259.6445,555,263.6445,559,259.6445" style="stroke:#5FB8EC;stroke-width:1.5;"/><line style="stroke:#5FB8EC;stroke-width:1.5;" x1="631" x2="631" y1="280.0469" y2="290.4492"/><line style="stroke:#5FB8EC;stroke-width:1.5;" x1="631" x2="639" y1="290.4492" y2="290.4492"/><polygon fill="#5FB8EC" points="635,286.4492,635,290.4492,635,294.4492,639,290.4492" style="stroke:#5FB8EC;stroke-width:1.5;"/><line style="stroke:#5FB8EC;stroke-width:1.5;" x1="791" x2="791" y1="310.8516" y2="321.2539"/><line style="stroke:#5FB8EC;stroke-width:1.5;" x1="791" x2="799" y1="321.2539" y2="321.2539"/><polygon fill="#5FB8EC" points="795,317.2539,795,321.2539,795,325.2539,799,321.2539" style="stroke:#5FB8EC;stroke-width:1.5;"/><rect fill="#E8F5FD" height="12.8047" style="stroke:none;stroke-width:1.0;" width="156" x="2" y="18"/><line style="stroke:#5FB8EC;stroke-width:1.0;" x1="2" x2="158" y1="18" y2="18"/><line style="stroke:#5FB8EC;stroke-width:1.0;" x1="2" x2="158" y1="30.8047" y2="30.8047"/><line style="stroke:#5FB8EC;stroke-width:1.0;" x1="2" x2="2" y1="18" y2="30.8047"/><line style="stroke:#5FB8EC;stroke-width:1.0;" x1="158" x2="158" y1="18" y2="30.8047"/><rect fill="#E8F5FD" height="12.8047" style="stroke:none;stroke-width:1.0;" width="236" x="2" y="34.8047"/><line style="stroke:#5FB8EC;stroke-width:1.0;" x1="2" x2="238" y1="34.8047" y2="34.8047"/><line style="stroke:#5FB8EC;stroke-width:1.0;" x1="2" x2="238" y1="47.6094" y2="47.6094"/><line style="stroke:#5FB8EC;stroke-width:1.0;" x1="2" x2="2" y1="34.8047" y2="47.6094"/><line style="stroke:#5FB8EC;stroke-width:1.0;" x1="238" x2="238" y1="34.8047" y2="47.6094"/><polygon fill="#E8F5FD" points="152,51.6094,157,56.6094,152,61.6094,147,56.6094" style="stroke:#5FB8EC;stroke-width:1.0;"/><rect fill="#E8F5FD" height="12.8047" style="stroke:none;stroke-width:1.0;" width="236" x="162" y="65.6094"/><line style="stroke:#5FB8EC;stroke-width:1.0;" x1="162" x2="398" y1="65.6094" y2="65.6094"/><line style="stroke:#5FB8EC;stroke-width:1.0;" x1="162" x2="398" y1="78.4141" y2="78.4141"/><line style="stroke:#5FB8EC;stroke-width:1.0;" x1="162" x2="162" y1="65.6094" y2="78.4141"/><line style="stroke:#5FB8EC;stroke-width:1.0;" x1="398" x2="398" y1="65.6094" y2="78.4141"/><rect fill="#E8F5FD" height="12.8047" style="stroke:none;stroke-width:1.0;" width="156" x="2" y="82.4141"/><line style="stroke:#5FB8EC;stroke-width:1.0;" x1="2" x2="158" y1="82.4141" y2="82.4141"/><line style="stroke:#5FB8EC;stroke-width:1.0;" x1="2" x2="158" y1="95.2188" y2="95.2188"/><line style="stroke:#5FB8EC;stroke-width:1.0;" x1="2" x2="2" y1="82.4141" y2="95.2188"/><line style="stroke:#5FB8EC;stroke-width:1.0;" x1="158" x2="158" y1="82.4141" y2="95.2188"/><polygon fill="#E8F5FD" points="232,99.2188,237,104.2188,232,109.2188,227,104.2188" style="stroke:#5FB8EC;stroke-width:1.0;"/><rect fill="#E8F5FD" height="12.8047" style="stroke:none;stroke-width:1.0;" width="156" x="242" y="113.2188"/><line style="stroke:#5FB8EC;stroke-width:1.0;" x1="242" x2="398" y1="113.2188" y2="113.2188"/><line style="stroke:#5FB8EC;stroke-width:1.0;" x1="242" x2="398" y1="126.0234" y2="126.0234"/><line style="stroke:#5FB8EC;stroke-width:1.0;" x1="242" x2="242" y1="113.2188" y2="126.0234"/><line style="stroke:#5FB8EC;stroke-width:1.0;" x1="398" x2="398" y1="113.2188" y2="126.0234"/><polygon fill="#E8F5FD" points="232,130.0234,237,135.0234,232,140.0234,227,135.0234" style="stroke:#5FB8EC;stroke-width:1.0;"/><rect fill="#E8F5FD" height="12.8047" style="stroke:none;stroke-width:1.0;" width="76" x="242" y="144.0234"/><line style="stroke:#5FB8EC;stroke-width:1.0;" x1="242" x2="318" y1="144.0234" y2="144.0234"/><line style="stroke:#5FB8EC;stroke-width:1.0;" x1="242" x2="318" y1="156.8281" y2="156.8281"/><line style="stroke:#5FB8EC;stroke-width:1.0;" x1="242" x2="242" y1="144.0234" y2="156.8281"/><line style="stroke:#5FB8EC;stroke-width:1.0;" x1="318" x2="318" y1="144.0234" y2="156.8281"/><rect fill="#E8F5FD" height="12.8047" style="stroke:none;stroke-width:1.0;" width="316" x="162" y="160.8281"/><line style="stroke:#5FB8EC;stroke-width:1.0;" x1="162" x2="478" y1="160.8281" y2="160.8281"/><line style="stroke:#5FB8EC;stroke-width:1.0;" x1="162" x2="478" y1="173.6328" y2="173.6328"/><line style="stroke:#5FB8EC;stroke-width:1.0;" x1="162" x2="162" y1="160.8281" y2="173.6328"/><line style="stroke:#5FB8EC;stroke-width:1.0;" x1="478" x2="478" y1="160.8281" y2="173.6328"/><polygon fill="#E8F5FD" points="152,177.6328,157,182.6328,152,187.6328,147,182.6328" style="stroke:#5FB8EC;stroke-width:1.0;"/><rect fill="#E8F5FD" height="12.8047" style="stroke:none;stroke-width:1.0;" width="396" x="162" y="191.6328"/><line style="stroke:#5FB8EC;stroke-width:1.0;" x1="162" x2="558" y1="191.6328" y2="191.6328"/><line style="stroke:#5FB8EC;stroke-width:1.0;" x1="162" x2="558" y1="204.4375" y2="204.4375"/><line style="stroke:#5FB8EC;stroke-width:1.0;" x1="162" x2="162" y1="191.6328" y2="204.4375"/><line style="stroke:#5FB8EC;stroke-width:1.0;" x1="558" x2="558" y1="191.6328" y2="204.4375"/><polygon fill="#E8F5FD" points="392,208.4375,397,213.4375,392,218.4375,387,213.4375" style="stroke:#5FB8EC;stroke-width:1.0;"/><rect fill="#E8F5FD" height="12.8047" style="stroke:none;stroke-width:1.0;" width="236" x="402" y="222.4375"/><line style="stroke:#5FB8EC;stroke-width:1.0;" x1="402" x2="638" y1="222.4375" y2="222.4375"/><line style="stroke:#5FB8EC;stroke-width:1.0;" x1="402" x2="638" y1="235.2422" y2="235.2422"/><line style="stroke:#5FB8EC;stroke-width:1.0;" x1="402" x2="402" y1="222.4375" y2="235.2422"/><line style="stroke:#5FB8EC;stroke-width:1.0;" x1="638" x2="638" y1="222.4375" y2="235.2422"/><polygon fill="#E8F5FD" points="552,239.2422,557,244.2422,552,249.2422,547,244.2422" style="stroke:#5FB8EC;stroke-width:1.0;"/><rect fill="#E8F5FD" height="12.8047" style="stroke:none;stroke-width:1.0;" width="236" x="562" y="253.2422"/><line style="stroke:#5FB8EC;stroke-width:1.0;" x1="562" x2="798" y1="253.2422" y2="253.2422"/><line style="stroke:#5FB8EC;stroke-width:1.0;" x1="562" x2="798" y1="266.0469" y2="266.0469"/><line style="stroke:#5FB8EC;stroke-width:1.0;" x1="562" x2="562" y1="253.2422" y2="266.0469"/><line style="stroke:#5FB8EC;stroke-width:1.0;" x1="798" x2="798" y1="253.2422" y2="266.0469"/><polygon fill="#E8F5FD" points="632,270.0469,637,275.0469,632,280.0469,627,275.0469" style="stroke:#5FB8EC;stroke-width:1.0;"/><rect fill="#E8F5FD" height="12.8047" style="stroke:none;stroke-width:1.0;" width="156" x="642" y="284.0469"/><line style="stroke:#5FB8EC;stroke-width:1.0;" x1="642" x2="798" y1="284.0469" y2="284.0469"/><line style="stroke:#5FB8EC;stroke-width:1.0;" x1="642" x2="798" y1="296.8516" y2="296.8516"/><line style="stroke:#5FB8EC;stroke-width:1.0;" x1="642" x2="642" y1="284.0469" y2="296.8516"/><line style="stroke:#5FB8EC;stroke-width:1.0;" x1="798" x2="798" y1="284.0469" y2="296.8516"/><polygon fill="#E8F5FD" points="792,300.8516,797,305.8516,792,310.8516,787,305.8516" style="stroke:#5FB8EC;stroke-width:1.0;"/><rect fill="#E8F5FD" height="12.8047" style="stroke:none;stroke-width:1.0;" width="156" x="802" y="314.8516"/><line style="stroke:#5FB8EC;stroke-width:1.0;" x1="802" x2="958" y1="314.8516" y2="314.8516"/><line style="stroke:#5FB8EC;stroke-width:1.0;" x1="802" x2="958" y1="327.6563" y2="327.6563"/><line style="stroke:#5FB8EC;stroke-width:1.0;" x1="802" x2="802" y1="314.8516" y2="327.6563"/><line style="stroke:#5FB8EC;stroke-width:1.0;" x1="958" x2="958" y1="314.8516" y2="327.6563"/><text fill="#000000" font-family="sans-serif" font-size="11" font-weight="bold" lengthAdjust="spacing" textLength="16" x="6" y="28.2104">T1</text><text fill="#000000" font-family="sans-serif" font-size="11" lengthAdjust="spacing" textLength="43" x="26" y="28.2104">(10 dni)</text><text fill="#000000" font-family="sans-serif" font-size="11" font-weight="bold" lengthAdjust="spacing" textLength="16" x="6" y="45.0151">T2</text><text fill="#000000" font-family="sans-serif" font-size="11" lengthAdjust="spacing" textLength="43" x="26" y="45.0151">(15 dni)</text><text fill="#000000" font-family="sans-serif" font-size="11" font-weight="bold" lengthAdjust="spacing" textLength="19" x="160" y="60.4175">M1</text><text fill="#000000" font-family="sans-serif" font-size="11" lengthAdjust="spacing" textLength="22" x="183" y="60.4175">/ T1</text><text fill="#000000" font-family="sans-serif" font-size="11" font-weight="bold" lengthAdjust="spacing" textLength="16" x="166" y="75.8198">T3</text><text fill="#000000" font-family="sans-serif" font-size="11" lengthAdjust="spacing" textLength="43" x="186" y="75.8198">(15 dni)</text><text fill="#000000" font-family="sans-serif" font-size="11" font-weight="bold" lengthAdjust="spacing" textLength="16" x="6" y="92.6245">T4</text><text fill="#000000" font-family="sans-serif" font-size="11" lengthAdjust="spacing" textLength="43" x="26" y="92.6245">(10 dni)</text><text fill="#000000" font-family="sans-serif" font-size="11" font-weight="bold" lengthAdjust="spacing" textLength="19" x="240" y="108.0269">M3</text><text fill="#000000" font-family="sans-serif" font-size="11" lengthAdjust="spacing" textLength="54" x="263" y="108.0269">/ T2 &amp; T4</text><text fill="#000000" font-family="sans-serif" font-size="11" font-weight="bold" lengthAdjust="spacing" textLength="16" x="246" y="123.4292">T5</text><text fill="#000000" font-family="sans-serif" font-size="11" lengthAdjust="spacing" textLength="43" x="266" y="123.4292">(10 dni)</text><text fill="#000000" font-family="sans-serif" font-size="11" font-weight="bold" lengthAdjust="spacing" textLength="19" x="240" y="138.8315">M4</text><text fill="#000000" font-family="sans-serif" font-size="11" lengthAdjust="spacing" textLength="54" x="263" y="138.8315">/ T1 &amp; T2</text><text fill="#000000" font-family="sans-serif" font-size="11" font-weight="bold" lengthAdjust="spacing" textLength="16" x="246" y="154.2339">T6</text><text fill="#000000" font-family="sans-serif" font-size="11" lengthAdjust="spacing" textLength="36" x="266" y="154.2339">(5 dni)</text><text fill="#000000" font-family="sans-serif" font-size="11" font-weight="bold" lengthAdjust="spacing" textLength="16" x="166" y="171.0386">T7</text><text fill="#000000" font-family="sans-serif" font-size="11" lengthAdjust="spacing" textLength="43" x="186" y="171.0386">(20 dni)</text><text fill="#000000" font-family="sans-serif" font-size="11" font-weight="bold" lengthAdjust="spacing" textLength="19" x="160" y="186.4409">M2</text><text fill="#000000" font-family="sans-serif" font-size="11" lengthAdjust="spacing" textLength="22" x="183" y="186.4409">/ T4</text><text fill="#000000" font-family="sans-serif" font-size="11" font-weight="bold" lengthAdjust="spacing" textLength="16" x="166" y="201.8433">T8</text><text fill="#000000" font-family="sans-serif" font-size="11" lengthAdjust="spacing" textLength="43" x="186" y="201.8433">(25 dni)</text><text fill="#000000" font-family="sans-serif" font-size="11" font-weight="bold" lengthAdjust="spacing" textLength="19" x="400" y="217.2456">M5</text><text fill="#000000" font-family="sans-serif" font-size="11" lengthAdjust="spacing" textLength="54" x="423" y="217.2456">/ T3 &amp; T6</text><text fill="#000000" font-family="sans-serif" font-size="11" font-weight="bold" lengthAdjust="spacing" textLength="16" x="406" y="232.6479">T9</text><text fill="#000000" font-family="sans-serif" font-size="11" lengthAdjust="spacing" textLength="43" x="426" y="232.6479">(15 dni)</text><text fill="#000000" font-family="sans-serif" font-size="11" font-weight="bold" lengthAdjust="spacing" textLength="19" x="560" y="248.0503">M6</text><text fill="#000000" font-family="sans-serif" font-size="11" lengthAdjust="spacing" textLength="54" x="583" y="248.0503">/ T7 &amp; T8</text><text fill="#000000" font-family="sans-serif" font-size="11" font-weight="bold" lengthAdjust="spacing" textLength="24" x="566" y="263.4526">T10</text><text fill="#000000" font-family="sans-serif" font-size="11" lengthAdjust="spacing" textLength="43" x="594" y="263.4526">(15 dni)</text><text fill="#000000" font-family="sans-serif" font-size="11" font-weight="bold" lengthAdjust="spacing" textLength="19" x="640" y="278.855">M7</text><text fill="#000000" font-family="sans-serif" font-size="11" lengthAdjust="spacing" textLength="22" x="663" y="278.855">/ T9</text><text fill="#000000" font-family="sans-serif" font-size="11" font-weight="bold" lengthAdjust="spacing" textLength="24" x="646" y="294.2573">T11</text><text fill="#000000" font-family="sans-serif" font-size="11" lengthAdjust="spacing" textLength="43" x="674" y="294.2573">(10 dni)</text><text fill="#000000" font-family="sans-serif" font-size="11" font-weight="bold" lengthAdjust="spacing" textLength="19" x="800" y="309.6597">M8</text><text fill="#000000" font-family="sans-serif" font-size="11" lengthAdjust="spacing" textLength="68" x="823" y="309.6597">/ T10 &amp; T11</text><text fill="#000000" font-family="sans-serif" font-size="11" font-weight="bold" lengthAdjust="spacing" textLength="24" x="806" y="325.062">T12</text><text fill="#000000" font-family="sans-serif" font-size="11" lengthAdjust="spacing" textLength="43" x="834" y="325.062">(10 dni)</text><line style="stroke:#F2F2F2;stroke-width:1.0;" x1="0" x2="0" y1="329.6563" y2="345.6563"/><line style="stroke:#F2F2F2;stroke-width:1.0;" x1="16" x2="16" y1="329.6563" y2="345.6563"/><line style="stroke:#F2F2F2;stroke-width:1.0;" x1="32" x2="32" y1="329.6563" y2="345.6563"/><line style="stroke:#F2F2F2;stroke-width:1.0;" x1="48" x2="48" y1="329.6563" y2="345.6563"/><line style="stroke:#F2F2F2;stroke-width:1.0;" x1="64" x2="64" y1="329.6563" y2="345.6563"/><line style="stroke:#F2F2F2;stroke-width:1.0;" x1="80" x2="80" y1="329.6563" y2="345.6563"/><line style="stroke:#F2F2F2;stroke-width:1.0;" x1="96" x2="96" y1="329.6563" y2="345.6563"/><line style="stroke:#F2F2F2;stroke-width:1.0;" x1="112" x2="112" y1="329.6563" y2="345.6563"/><line style="stroke:#F2F2F2;stroke-width:1.0;" x1="128" x2="128" y1="329.6563" y2="345.6563"/><line style="stroke:#F2F2F2;stroke-width:1.0;" x1="144" x2="144" y1="329.6563" y2="345.6563"/><line style="stroke:#F2F2F2;stroke-width:1.0;" x1="160" x2="160" y1="329.6563" y2="345.6563"/><line style="stroke:#F2F2F2;stroke-width:1.0;" x1="176" x2="176" y1="329.6563" y2="345.6563"/><line style="stroke:#F2F2F2;stroke-width:1.0;" x1="192" x2="192" y1="329.6563" y2="345.6563"/><line style="stroke:#F2F2F2;stroke-width:1.0;" x1="208" x2="208" y1="329.6563" y2="345.6563"/><line style="stroke:#F2F2F2;stroke-width:1.0;" x1="224" x2="224" y1="329.6563" y2="345.6563"/><line style="stroke:#F2F2F2;stroke-width:1.0;" x1="240" x2="240" y1="329.6563" y2="345.6563"/><line style="stroke:#F2F2F2;stroke-width:1.0;" x1="256" x2="256" y1="329.6563" y2="345.6563"/><line style="stroke:#F2F2F2;stroke-width:1.0;" x1="272" x2="272" y1="329.6563" y2="345.6563"/><line style="stroke:#F2F2F2;stroke-width:1.0;" x1="288" x2="288" y1="329.6563" y2="345.6563"/><line style="stroke:#F2F2F2;stroke-width:1.0;" x1="304" x2="304" y1="329.6563" y2="345.6563"/><line style="stroke:#F2F2F2;stroke-width:1.0;" x1="320" x2="320" y1="329.6563" y2="345.6563"/><line style="stroke:#F2F2F2;stroke-width:1.0;" x1="336" x2="336" y1="329.6563" y2="345.6563"/><line style="stroke:#F2F2F2;stroke-width:1.0;" x1="352" x2="352" y1="329.6563" y2="345.6563"/><line style="stroke:#F2F2F2;stroke-width:1.0;" x1="368" x2="368" y1="329.6563" y2="345.6563"/><line style="stroke:#F2F2F2;stroke-width:1.0;" x1="384" x2="384" y1="329.6563" y2="345.6563"/><line style="stroke:#F2F2F2;stroke-width:1.0;" x1="400" x2="400" y1="329.6563" y2="345.6563"/><line style="stroke:#F2F2F2;stroke-width:1.0;" x1="416" x2="416" y1="329.6563" y2="345.6563"/><line style="stroke:#F2F2F2;stroke-width:1.0;" x1="432" x2="432" y1="329.6563" y2="345.6563"/><line style="stroke:#F2F2F2;stroke-width:1.0;" x1="448" x2="448" y1="329.6563" y2="345.6563"/><line style="stroke:#F2F2F2;stroke-width:1.0;" x1="464" x2="464" y1="329.6563" y2="345.6563"/><line style="stroke:#F2F2F2;stroke-width:1.0;" x1="480" x2="480" y1="329.6563" y2="345.6563"/><line style="stroke:#F2F2F2;stroke-width:1.0;" x1="496" x2="496" y1="329.6563" y2="345.6563"/><line style="stroke:#F2F2F2;stroke-width:1.0;" x1="512" x2="512" y1="329.6563" y2="345.6563"/><line style="stroke:#F2F2F2;stroke-width:1.0;" x1="528" x2="528" y1="329.6563" y2="345.6563"/><line style="stroke:#F2F2F2;stroke-width:1.0;" x1="544" x2="544" y1="329.6563" y2="345.6563"/><line style="stroke:#F2F2F2;stroke-width:1.0;" x1="560" x2="560" y1="329.6563" y2="345.6563"/><line style="stroke:#F2F2F2;stroke-width:1.0;" x1="576" x2="576" y1="329.6563" y2="345.6563"/><line style="stroke:#F2F2F2;stroke-width:1.0;" x1="592" x2="592" y1="329.6563" y2="345.6563"/><line style="stroke:#F2F2F2;stroke-width:1.0;" x1="608" x2="608" y1="329.6563" y2="345.6563"/><line style="stroke:#F2F2F2;stroke-width:1.0;" x1="624" x2="624" y1="329.6563" y2="345.6563"/><line style="stroke:#F2F2F2;stroke-width:1.0;" x1="640" x2="640" y1="329.6563" y2="345.6563"/><line style="stroke:#F2F2F2;stroke-width:1.0;" x1="656" x2="656" y1="329.6563" y2="345.6563"/><line style="stroke:#F2F2F2;stroke-width:1.0;" x1="672" x2="672" y1="329.6563" y2="345.6563"/><line style="stroke:#F2F2F2;stroke-width:1.0;" x1="688" x2="688" y1="329.6563" y2="345.6563"/><line style="stroke:#F2F2F2;stroke-width:1.0;" x1="704" x2="704" y1="329.6563" y2="345.6563"/><line style="stroke:#F2F2F2;stroke-width:1.0;" x1="720" x2="720" y1="329.6563" y2="345.6563"/><line style="stroke:#F2F2F2;stroke-width:1.0;" x1="736" x2="736" y1="329.6563" y2="345.6563"/><line style="stroke:#F2F2F2;stroke-width:1.0;" x1="752" x2="752" y1="329.6563" y2="345.6563"/><line style="stroke:#F2F2F2;stroke-width:1.0;" x1="768" x2="768" y1="329.6563" y2="345.6563"/><line style="stroke:#F2F2F2;stroke-width:1.0;" x1="784" x2="784" y1="329.6563" y2="345.6563"/><line style="stroke:#F2F2F2;stroke-width:1.0;" x1="800" x2="800" y1="329.6563" y2="345.6563"/><line style="stroke:#F2F2F2;stroke-width:1.0;" x1="816" x2="816" y1="329.6563" y2="345.6563"/><line style="stroke:#F2F2F2;stroke-width:1.0;" x1="832" x2="832" y1="329.6563" y2="345.6563"/><line style="stroke:#F2F2F2;stroke-width:1.0;" x1="848" x2="848" y1="329.6563" y2="345.6563"/><line style="stroke:#F2F2F2;stroke-width:1.0;" x1="864" x2="864" y1="329.6563" y2="345.6563"/><line style="stroke:#F2F2F2;stroke-width:1.0;" x1="880" x2="880" y1="329.6563" y2="345.6563"/><line style="stroke:#F2F2F2;stroke-width:1.0;" x1="896" x2="896" y1="329.6563" y2="345.6563"/><line style="stroke:#F2F2F2;stroke-width:1.0;" x1="912" x2="912" y1="329.6563" y2="345.6563"/><line style="stroke:#F2F2F2;stroke-width:1.0;" x1="928" x2="928" y1="329.6563" y2="345.6563"/><line style="stroke:#F2F2F2;stroke-width:1.0;" x1="944" x2="944" y1="329.6563" y2="345.6563"/><line style="stroke:#F2F2F2;stroke-width:1.0;" x1="960" x2="960" y1="329.6563" y2="345.6563"/><text fill="#808080" font-family="Serif" font-size="10" lengthAdjust="spacing" textLength="6" x="5" y="341.9385">1</text><text fill="#808080" font-family="Serif" font-size="10" lengthAdjust="spacing" textLength="6" x="21" y="341.9385">2</text><text fill="#808080" font-family="Serif" font-size="10" lengthAdjust="spacing" textLength="6" x="37" y="341.9385">3</text><text fill="#808080" font-family="Serif" font-size="10" lengthAdjust="spacing" textLength="6" x="53" y="341.9385">4</text><text fill="#808080" font-family="Serif" font-size="10" lengthAdjust="spacing" textLength="6" x="69" y="341.9385">5</text><text fill="#808080" font-family="Serif" font-size="10" lengthAdjust="spacing" textLength="6" x="85" y="341.9385">6</text><text fill="#808080" font-family="Serif" font-size="10" lengthAdjust="spacing" textLength="6" x="101" y="341.9385">7</text><text fill="#808080" font-family="Serif" font-size="10" lengthAdjust="spacing" textLength="6" x="117" y="341.9385">8</text><text fill="#808080" font-family="Serif" font-size="10" lengthAdjust="spacing" textLength="6" x="133" y="341.9385">9</text><text fill="#808080" font-family="Serif" font-size="10" lengthAdjust="spacing" textLength="12" x="146" y="341.9385">10</text><text fill="#808080" font-family="Serif" font-size="10" lengthAdjust="spacing" textLength="12" x="162" y="341.9385">11</text><text fill="#808080" font-family="Serif" font-size="10" lengthAdjust="spacing" textLength="12" x="178" y="341.9385">12</text><text fill="#808080" font-family="Serif" font-size="10" lengthAdjust="spacing" textLength="12" x="194" y="341.9385">13</text><text fill="#808080" font-family="Serif" font-size="10" lengthAdjust="spacing" textLength="12" x="210" y="341.9385">14</text><text fill="#808080" font-family="Serif" font-size="10" lengthAdjust="spacing" textLength="12" x="226" y="341.9385">15</text><text fill="#808080" font-family="Serif" font-size="10" lengthAdjust="spacing" textLength="12" x="242" y="341.9385">16</text><text fill="#808080" font-family="Serif" font-size="10" lengthAdjust="spacing" textLength="12" x="258" y="341.9385">17</text><text fill="#808080" font-family="Serif" font-size="10" lengthAdjust="spacing" textLength="12" x="274" y="341.9385">18</text><text fill="#808080" font-family="Serif" font-size="10" lengthAdjust="spacing" textLength="12" x="290" y="341.9385">19</text><text fill="#808080" font-family="Serif" font-size="10" lengthAdjust="spacing" textLength="12" x="306" y="341.9385">20</text><text fill="#808080" font-family="Serif" font-size="10" lengthAdjust="spacing" textLength="12" x="322" y="341.9385">21</text><text fill="#808080" font-family="Serif" font-size="10" lengthAdjust="spacing" textLength="12" x="338" y="341.9385">22</text><text fill="#808080" font-family="Serif" font-size="10" lengthAdjust="spacing" textLength="12" x="354" y="341.9385">23</text><text fill="#808080" font-family="Serif" font-size="10" lengthAdjust="spacing" textLength="12" x="370" y="341.9385">24</text><text fill="#808080" font-family="Serif" font-size="10" lengthAdjust="spacing" textLength="12" x="386" y="341.9385">25</text><text fill="#808080" font-family="Serif" font-size="10" lengthAdjust="spacing" textLength="12" x="402" y="341.9385">26</text><text fill="#808080" font-family="Serif" font-size="10" lengthAdjust="spacing" textLength="12" x="418" y="341.9385">27</text><text fill="#808080" font-family="Serif" font-size="10" lengthAdjust="spacing" textLength="12" x="434" y="341.9385">28</text><text fill="#808080" font-family="Serif" font-size="10" lengthAdjust="spacing" textLength="12" x="450" y="341.9385">29</text><text fill="#808080" font-family="Serif" font-size="10" lengthAdjust="spacing" textLength="12" x="466" y="341.9385">30</text><text fill="#808080" font-family="Serif" font-size="10" lengthAdjust="spacing" textLength="12" x="482" y="341.9385">31</text><text fill="#808080" font-family="Serif" font-size="10" lengthAdjust="spacing" textLength="12" x="498" y="341.9385">32</text><text fill="#808080" font-family="Serif" font-size="10" lengthAdjust="spacing" textLength="12" x="514" y="341.9385">33</text><text fill="#808080" font-family="Serif" font-size="10" lengthAdjust="spacing" textLength="12" x="530" y="341.9385">34</text><text fill="#808080" font-family="Serif" font-size="10" lengthAdjust="spacing" textLength="12" x="546" y="341.9385">35</text><text fill="#808080" font-family="Serif" font-size="10" lengthAdjust="spacing" textLength="12" x="562" y="341.9385">36</text><text fill="#808080" font-family="Serif" font-size="10" lengthAdjust="spacing" textLength="12" x="578" y="341.9385">37</text><text fill="#808080" font-family="Serif" font-size="10" lengthAdjust="spacing" textLength="12" x="594" y="341.9385">38</text><text fill="#808080" font-family="Serif" font-size="10" lengthAdjust="spacing" textLength="12" x="610" y="341.9385">39</text><text fill="#808080" font-family="Serif" font-size="10" lengthAdjust="spacing" textLength="12" x="626" y="341.9385">40</text><text fill="#808080" font-family="Serif" font-size="10" lengthAdjust="spacing" textLength="12" x="642" y="341.9385">41</text><text fill="#808080" font-family="Serif" font-size="10" lengthAdjust="spacing" textLength="12" x="658" y="341.9385">42</text><text fill="#808080" font-family="Serif" font-size="10" lengthAdjust="spacing" textLength="12" x="674" y="341.9385">43</text><text fill="#808080" font-family="Serif" font-size="10" lengthAdjust="spacing" textLength="12" x="690" y="341.9385">44</text><text fill="#808080" font-family="Serif" font-size="10" lengthAdjust="spacing" textLength="12" x="706" y="341.9385">45</text><text fill="#808080" font-family="Serif" font-size="10" lengthAdjust="spacing" textLength="12" x="722" y="341.9385">46</text><text fill="#808080" font-family="Serif" font-size="10" lengthAdjust="spacing" textLength="12" x="738" y="341.9385">47</text><text fill="#808080" font-family="Serif" font-size="10" lengthAdjust="spacing" textLength="12" x="754" y="341.9385">48</text><text fill="#808080" font-family="Serif" font-size="10" lengthAdjust="spacing" textLength="12" x="770" y="341.9385">49</text><text fill="#808080" font-family="Serif" font-size="10" lengthAdjust="spacing" textLength="12" x="786" y="341.9385">50</text><text fill="#808080" font-family="Serif" font-size="10" lengthAdjust="spacing" textLength="12" x="802" y="341.9385">51</text><text fill="#808080" font-family="Serif" font-size="10" lengthAdjust="spacing" textLength="12" x="818" y="341.9385">52</text><text fill="#808080" font-family="Serif" font-size="10" lengthAdjust="spacing" textLength="12" x="834" y="341.9385">53</text><text fill="#808080" font-family="Serif" font-size="10" lengthAdjust="spacing" textLength="12" x="850" y="341.9385">54</text><text fill="#808080" font-family="Serif" font-size="10" lengthAdjust="spacing" textLength="12" x="866" y="341.9385">55</text><text fill="#808080" font-family="Serif" font-size="10" lengthAdjust="spacing" textLength="12" x="882" y="341.9385">56</text><text fill="#808080" font-family="Serif" font-size="10" lengthAdjust="spacing" textLength="12" x="898" y="341.9385">57</text><text fill="#808080" font-family="Serif" font-size="10" lengthAdjust="spacing" textLength="12" x="914" y="341.9385">58</text><text fill="#808080" font-family="Serif" font-size="10" lengthAdjust="spacing" textLength="12" x="930" y="341.9385">59</text><text fill="#808080" font-family="Serif" font-size="10" lengthAdjust="spacing" textLength="12" x="946" y="341.9385">60</text><line style="stroke:#F2F2F2;stroke-width:1.0;" x1="0" x2="960" y1="332.6563" y2="332.6563"/><!--MD5=[ee5fcb8e251a305fc574acdadb05432b]
@startuml
skinparam backgroundColor transparent

<style>
ganttDiagram {
  timeline {
    LineColor #f2f2f2
    FontColor gray
  }
  task {
    BackgroundColor #e8f5fd
    LineColor #5FB8EC
  }
  arrow {
    LineColor #5FB8EC
  }
  milestone {
    BackgroundColor #e8f5fd
    LineColor #5FB8EC
  }
}
</style>

saturdays are closed
sundays are closed

[**T1** (10 dni)] as [T1] lasts 2 weeks
[**T2** (15 dni)] as [T2] lasts 3 weeks

[**M1** / T1] as [M1] happens at [T1]'s end

[**T3** (15 dni)] as [T3] lasts 3 weeks and starts at [M1]'s end
[**T4** (10 dni)] as [T4] lasts 2 weeks

[**M3** / T2 & T4] as [M3] happens at [T2]'s end
[**M3** / T2 & T4] as [M3] happens at [T4]'s end

[**T5** (10 dni)] as [T5] lasts 2 weeks and starts at [M3]'s end

[**M4** / T1 & T2] as [M4] happens at [T1]'s end
[**M4** / T1 & T2] as [M4] happens at [T2]'s end

[**T6** (5 dni)] as [T6] lasts 1 week and starts at [M4]'s end
[**T7** (20 dni)] as [T7] lasts 4 weeks and starts at [M1]'s end

[**M2** / T4] as [M2] happens at [T4]'s end

[**T8** (25 dni)] as [T8] lasts 5 weeks and starts at [M2]'s end

[**M5** / T3 & T6] as [M5] happens at [T3]'s end
[**M5** / T3 & T6] as [M5] happens at [T6]'s end

[**T9** (15 dni)] as [T9] lasts 3 weeks and starts at [M5]'s end

[**M6** / T7 & T8] as [M6] happens at [T7]'s end
[**M6** / T7 & T8] as [M6] happens at [T8]'s end

[**T10** (15 dni)] as [T10] lasts 3 weeks and starts at [M6]'s end

[**M7** / T9] as [M7] happens at [T9]'s end

[**T11** (10 dni)] as [T11] lasts 2 weeks and starts at [M7]'s end

[**M8** / T10 & T11] as [M8] happens at [T10]'s end
[**M8** / T10 & T11] as [M8] happens at [T11]'s end

[**T12** (10 dni)] as [T12] lasts 2 weeks and starts at [M8]'s end
@enduml

PlantUML version 1.2022.0(Tue Jan 11 17:16:42 CET 2022)
(GPL source distribution)
Java Runtime: OpenJDK Runtime Environment
JVM: OpenJDK 64-Bit Server VM
Default Encoding: UTF-8
Language: en
Country: null
--></g></svg>