<?xml version="1.0" encoding="UTF-8" standalone="no"?><svg xmlns="http://www.w3.org/2000/svg" xmlns:xlink="http://www.w3.org/1999/xlink" contentScriptType="application/ecmascript" contentStyleType="text/css" height="107px" preserveAspectRatio="none" style="width:287px;height:107px;background:#00000000;" version="1.1" viewBox="0 0 287 107" width="287px" zoomAndPan="magnify"><defs/><g><text fill="#000000" font-family="sans-serif" font-size="12" font-weight="bold" lengthAdjust="spacing" textLength="152" x="6" y="31.1074">Corellijeva mandolina</text><line style="stroke:#AAAAAA;stroke-width:1.0;stroke-dasharray:1.0,2.0;" x1="6" x2="253" y1="39.4375" y2="39.4375"/><line style="stroke:#AAAAAA;stroke-width:1.0;stroke-dasharray:1.0,2.0;" x1="254" x2="280" y1="39.4375" y2="39.4375"/><text fill="#000000" font-family="sans-serif" font-size="12" lengthAdjust="spacing" textLength="194" x="9" y="55.0762">Vnesi ID skladiščnega prostora</text><line style="stroke:#000000;stroke-width:1.0;" x1="7" x2="250" y1="57.9063" y2="57.9063"/><line style="stroke:#000000;stroke-width:1.0;" x1="7" x2="7" y1="54.9063" y2="56.9063"/><line style="stroke:#000000;stroke-width:1.0;" x1="250" x2="250" y1="54.9063" y2="56.9063"/><rect fill="#EEEEEE" height="17.9688" rx="5" ry="5" style="stroke:#000000;stroke-width:2.5;" width="20" x="256.5" y="46.4375"/><text fill="#000000" font-family="sans-serif" font-size="12" lengthAdjust="spacing" textLength="16" x="258.5" y="59.5762">OK</text><line style="stroke:#AAAAAA;stroke-width:1.0;stroke-dasharray:1.0,2.0;" x1="6" x2="253" y1="72.4063" y2="72.4063"/><line style="stroke:#AAAAAA;stroke-width:1.0;stroke-dasharray:1.0,2.0;" x1="254" x2="280" y1="72.4063" y2="72.4063"/><rect fill="#EEEEEE" height="17.9688" rx="5" ry="5" style="stroke:#000000;stroke-width:2.5;" width="44" x="8.5" y="79.4063"/><text fill="#000000" font-family="sans-serif" font-size="12" lengthAdjust="spacing" textLength="33" x="14" y="92.5449">Zapri</text><line style="stroke:#000000;stroke-width:1.0;" x1="5" x2="253" y1="11.9844" y2="11.9844"/><line style="stroke:#000000;stroke-width:1.0;" x1="253" x2="280" y1="11.9844" y2="11.9844"/><line style="stroke:#000000;stroke-width:1.0;" x1="5" x2="253" y1="100.875" y2="100.875"/><line style="stroke:#000000;stroke-width:1.0;" x1="253" x2="280" y1="100.875" y2="100.875"/><line style="stroke:#000000;stroke-width:1.0;" x1="5" x2="5" y1="11.9844" y2="34.9375"/><line style="stroke:#000000;stroke-width:1.0;" x1="280" x2="280" y1="42.9375" y2="67.9063"/><line style="stroke:#000000;stroke-width:1.0;" x1="280" x2="280" y1="34.9375" y2="42.9375"/><line style="stroke:#000000;stroke-width:1.0;" x1="280" x2="280" y1="11.9844" y2="34.9375"/><line style="stroke:#000000;stroke-width:1.0;" x1="5" x2="5" y1="75.9063" y2="100.875"/><line style="stroke:#000000;stroke-width:1.0;" x1="5" x2="5" y1="67.9063" y2="75.9063"/><line style="stroke:#000000;stroke-width:1.0;" x1="5" x2="5" y1="42.9375" y2="67.9063"/><line style="stroke:#000000;stroke-width:1.0;" x1="280" x2="280" y1="75.9063" y2="100.875"/><line style="stroke:#000000;stroke-width:1.0;" x1="5" x2="5" y1="34.9375" y2="42.9375"/><line style="stroke:#000000;stroke-width:1.0;" x1="280" x2="280" y1="67.9063" y2="75.9063"/><rect fill="#FFFFFF" height="13.9688" style="stroke:#FFFFFF;stroke-width:1.0;" width="139" x="11" y="5"/><text fill="#000000" font-family="sans-serif" font-size="12" lengthAdjust="spacing" textLength="139" x="11" y="16.1387">Naročanje dokumenta</text><!--MD5=[292d646bc9c3126e33d3b179613ef155]
@startsalt Potrditev naročanja odobrenega dokumenta

skinparam backgroundcolor transparent

{^"Naročanje dokumenta"
  **Corellijeva mandolina**
  .. | ..
  "Vnesi ID skladiščnega prostora" | [OK]
  .. | ..
  [Zapri]
}
@endsalt

PlantUML version 1.2022.0(Tue Jan 11 17:16:42 CET 2022)
(GPL source distribution)
Java Runtime: OpenJDK Runtime Environment
JVM: OpenJDK 64-Bit Server VM
Default Encoding: UTF-8
Language: en
Country: null
--></g></svg>