<?xml version="1.0" encoding="UTF-8" standalone="no"?><svg xmlns="http://www.w3.org/2000/svg" xmlns:xlink="http://www.w3.org/1999/xlink" contentScriptType="application/ecmascript" contentStyleType="text/css" height="442px" preserveAspectRatio="none" style="width:288px;height:442px;background:#00000000;" version="1.1" viewBox="0 0 288 442" width="288px" zoomAndPan="magnify"><defs><filter height="300%" id="fitefzhjawty1" width="300%" x="-1" y="-1"><feGaussianBlur result="blurOut" stdDeviation="2.0"/><feColorMatrix in="blurOut" result="blurOut2" type="matrix" values="0 0 0 0 0 0 0 0 0 0 0 0 0 0 0 0 0 0 .4 0"/><feOffset dx="4.0" dy="4.0" in="blurOut2" result="blurOut3"/><feBlend in="SourceGraphic" in2="blurOut3" mode="normal"/></filter></defs><g><!--MD5=[d584c8c80d2b7218868350ad4a292901]
entity Referent--><ellipse cx="36" cy="187" fill="#FFFFFF" filter="url(#fitefzhjawty1)" rx="8" ry="8" style="stroke:#000000;stroke-width:1.5;"/><path d="M36,195 L36,222 M23,203 L49,203 M36,222 L23,237 M36,222 L49,237 " fill="none" filter="url(#fitefzhjawty1)" style="stroke:#000000;stroke-width:1.5;"/><text fill="#000000" font-family="sans-serif" font-size="14" lengthAdjust="spacing" textLength="60" x="6" y="255.4951">Referent</text><ellipse cx="201.1335" cy="32.0473" fill="#FFFFFF" filter="url(#fitefzhjawty1)" rx="46.1335" ry="26.0473" style="stroke:#5FB8EC;stroke-width:1.5;"/><text fill="#000000" font-family="sans-serif" font-size="14" lengthAdjust="spacing" textLength="43" x="179.6335" y="26.7455">Prijava</text><text fill="#000000" font-family="sans-serif" font-size="14" lengthAdjust="spacing" textLength="49" x="176.6335" y="43.0424">bolnika</text><ellipse cx="201.1335" cy="119.0473" fill="#FFFFFF" filter="url(#fitefzhjawty1)" rx="46.1335" ry="26.0473" style="stroke:#5FB8EC;stroke-width:1.5;"/><text fill="#000000" font-family="sans-serif" font-size="14" lengthAdjust="spacing" textLength="46" x="178.1335" y="113.7455">Odjava</text><text fill="#000000" font-family="sans-serif" font-size="14" lengthAdjust="spacing" textLength="49" x="176.6335" y="130.0424">bolnika</text><ellipse cx="201.2401" cy="218.0709" fill="#FFFFFF" filter="url(#fitefzhjawty1)" rx="56.7401" ry="37.5709" style="stroke:#5FB8EC;stroke-width:1.5;"/><text fill="#000000" font-family="sans-serif" font-size="14" lengthAdjust="spacing" textLength="41" x="180.7401" y="204.6207">Ogled</text><text fill="#000000" font-family="sans-serif" font-size="14" lengthAdjust="spacing" textLength="56" x="173.2401" y="220.9176">osebnih</text><text fill="#000000" font-family="sans-serif" font-size="14" lengthAdjust="spacing" textLength="64" x="169.2401" y="237.2144">podatkov</text><ellipse cx="201.2401" cy="317.0473" fill="#FFFFFF" filter="url(#fitefzhjawty1)" rx="56.7401" ry="26.0473" style="stroke:#5FB8EC;stroke-width:1.5;"/><text fill="#000000" font-family="sans-serif" font-size="14" lengthAdjust="spacing" textLength="49" x="176.7401" y="311.7455">Prenos</text><text fill="#000000" font-family="sans-serif" font-size="14" lengthAdjust="spacing" textLength="64" x="169.2401" y="328.0424">podatkov</text><ellipse cx="201.1493" cy="404.0551" fill="#FFFFFF" filter="url(#fitefzhjawty1)" rx="75.1493" ry="26.0551" style="stroke:#5FB8EC;stroke-width:1.5;"/><text fill="#000000" font-family="sans-serif" font-size="14" lengthAdjust="spacing" textLength="90" x="154.8211" y="399.1778">Kontaktiranje</text><text fill="#000000" font-family="sans-serif" font-size="14" lengthAdjust="spacing" textLength="49" x="175.3211" y="415.4746">bolnika</text><!--MD5=[51f2e2d68a83c4fffbeaa798eaf2ecfc]
link Referent to PrijavaBolnika--><path d="M55.52,177.31 C71.06,146.48 95.57,104.52 126,75 C135.79,65.5 148.08,57.28 159.81,50.65 " fill="none" id="Referent-to-PrijavaBolnika" style="stroke:#000000;stroke-width:1.0;"/><polygon fill="#000000" points="164.45,48.1,154.6379,48.9496,160.0732,50.5173,158.5055,55.9526,164.45,48.1" style="stroke:#000000;stroke-width:1.0;"/><!--MD5=[7996a6f6de0e09402c92423b3b80d440]
link Referent to OdjavaBolnika--><path d="M66.18,199.79 C83.52,189.02 105.96,175.15 126,163 C138.41,155.48 152.05,147.33 164.2,140.12 " fill="none" id="Referent-to-OdjavaBolnika" style="stroke:#000000;stroke-width:1.0;"/><polygon fill="#000000" points="168.6,137.51,158.82,138.6722,164.3025,140.0657,162.909,145.5482,168.6,137.51" style="stroke:#000000;stroke-width:1.0;"/><!--MD5=[227164cd96d014b89aa928699ef2754a]
link Referent to OgledOsebnihPodatkov--><path d="M66.14,218 C86.4,218 114.15,218 139.13,218 " fill="none" id="Referent-to-OgledOsebnihPodatkov" style="stroke:#000000;stroke-width:1.0;"/><polygon fill="#000000" points="144.42,218,135.42,214,139.42,218,135.42,222,144.42,218" style="stroke:#000000;stroke-width:1.0;"/><!--MD5=[705be1cb332838b59b8988fdeaf24a91]
link Referent to PrenosPodatkov--><path d="M66.18,236.21 C83.52,246.98 105.96,260.85 126,273 C137.28,279.84 149.59,287.2 160.86,293.9 " fill="none" id="Referent-to-PrenosPodatkov" style="stroke:#000000;stroke-width:1.0;"/><polygon fill="#000000" points="165.29,296.53,159.599,288.4918,160.9925,293.9743,155.51,295.3678,165.29,296.53" style="stroke:#000000;stroke-width:1.0;"/><!--MD5=[52a25348726686b831f8174d2d4d6b07]
link Referent to KontaktiranjeBolnika--><path d="M55.83,258.63 C71.45,289.17 95.93,330.62 126,360 C133.79,367.61 143.14,374.45 152.52,380.34 " fill="none" id="Referent-to-KontaktiranjeBolnika" style="stroke:#000000;stroke-width:1.0;"/><polygon fill="#000000" points="156.84,382.98,151.2639,374.8617,152.5793,380.3635,147.0775,381.6789,156.84,382.98" style="stroke:#000000;stroke-width:1.0;"/><!--MD5=[8e9635163258307af869d92d28924572]
@startuml
skinparam backgroundcolor transparent
'skinparam shadowing false
skinparam defaultTextAlignment center
skinparam usecase {
  backgroundColor white
  borderColor #5FB8EC
  arrowColor black
}
skinparam actorBorderColor black
skinparam actorBackgroundColor white

left to right direction

actor Referent
usecase (Prijava\nbolnika) as (PrijavaBolnika)
usecase (Odjava\nbolnika) as (OdjavaBolnika)
usecase (Ogled\nosebnih\npodatkov) as (OgledOsebnihPodatkov)
usecase (Prenos\npodatkov) as (PrenosPodatkov)
usecase (Kontaktiranje\nbolnika) as (KontaktiranjeBolnika)

Referent - -> (PrijavaBolnika)
Referent - -> (OdjavaBolnika)
Referent - -> (OgledOsebnihPodatkov)
Referent - -> (PrenosPodatkov)
Referent - -> (KontaktiranjeBolnika)
@enduml

@startuml
skinparam backgroundcolor transparent
skinparam defaultTextAlignment center
skinparam usecase {
  backgroundColor white
  borderColor #5FB8EC
  arrowColor black
}
skinparam actorBorderColor black
skinparam actorBackgroundColor white

left to right direction

actor Referent
usecase (Prijava\nbolnika) as (PrijavaBolnika)
usecase (Odjava\nbolnika) as (OdjavaBolnika)
usecase (Ogled\nosebnih\npodatkov) as (OgledOsebnihPodatkov)
usecase (Prenos\npodatkov) as (PrenosPodatkov)
usecase (Kontaktiranje\nbolnika) as (KontaktiranjeBolnika)

Referent - -> (PrijavaBolnika)
Referent - -> (OdjavaBolnika)
Referent - -> (OgledOsebnihPodatkov)
Referent - -> (PrenosPodatkov)
Referent - -> (KontaktiranjeBolnika)
@enduml

PlantUML version 1.2022.0(Tue Jan 11 17:16:42 CET 2022)
(GPL source distribution)
Java Runtime: OpenJDK Runtime Environment
JVM: OpenJDK 64-Bit Server VM
Default Encoding: UTF-8
Language: en
Country: null
--></g></svg>