<?xml version="1.0" encoding="UTF-8" standalone="no"?><svg xmlns="http://www.w3.org/2000/svg" xmlns:xlink="http://www.w3.org/1999/xlink" contentScriptType="application/ecmascript" contentStyleType="text/css" height="347px" preserveAspectRatio="none" style="width:779px;height:347px;background:#00000000;" version="1.1" viewBox="0 0 779 347" width="779px" zoomAndPan="magnify"><defs><filter height="300%" id="f1c86fv0bhgu7t" width="300%" x="-1" y="-1"><feGaussianBlur result="blurOut" stdDeviation="2.0"/><feColorMatrix in="blurOut" result="blurOut2" type="matrix" values="0 0 0 0 0 0 0 0 0 0 0 0 0 0 0 0 0 0 .4 0"/><feOffset dx="4.0" dy="4.0" in="blurOut2" result="blurOut3"/><feBlend in="SourceGraphic" in2="blurOut3" mode="normal"/></filter></defs><g><!--MD5=[d1ecaf3b7ef5e0cfafe46f8b9fd4c29d]
cluster Odjemalec--><polygon filter="url(#f1c86fv0bhgu7t)" points="551,46,561,36,762,36,762,330,752,340,551,340,551,46" style="stroke:#5FB8EC;stroke-width:1.5;fill:none;"/><line style="stroke:#5FB8EC;stroke-width:1.5;fill:none;" x1="752" x2="762" y1="46" y2="36"/><line style="stroke:#5FB8EC;stroke-width:1.5;fill:none;" x1="551" x2="752" y1="46" y2="46"/><line style="stroke:#5FB8EC;stroke-width:1.5;fill:none;" x1="752" x2="752" y1="46" y2="340"/><text fill="#000000" font-family="sans-serif" font-size="14" font-style="italic" lengthAdjust="spacing" textLength="63" x="621" y="61.9951">«device»</text><text fill="#000000" font-family="sans-serif" font-size="14" font-weight="bold" lengthAdjust="spacing" textLength="85" x="610" y="78.292">Odjemalski</text><text fill="#000000" font-family="sans-serif" font-size="14" font-weight="bold" lengthAdjust="spacing" textLength="81" x="612" y="94.5889">računalnik</text><!--MD5=[ec989712da0372c44e146aab1a8f38fe]
cluster Brskalnik--><polygon filter="url(#f1c86fv0bhgu7t)" points="583,134,593,124,730,124,730,290,720,300,583,300,583,134" style="stroke:#5FB8EC;stroke-width:1.5;fill:none;"/><line style="stroke:#5FB8EC;stroke-width:1.5;fill:none;" x1="720" x2="730" y1="134" y2="124"/><line style="stroke:#5FB8EC;stroke-width:1.5;fill:none;" x1="583" x2="720" y1="134" y2="134"/><line style="stroke:#5FB8EC;stroke-width:1.5;fill:none;" x1="720" x2="720" y1="134" y2="300"/><text fill="#000000" font-family="sans-serif" font-size="14" font-style="italic" lengthAdjust="spacing" textLength="63" x="621" y="149.9951">«device»</text><text fill="#000000" font-family="sans-serif" font-size="14" font-weight="bold" lengthAdjust="spacing" textLength="54" x="625.5" y="166.292">Spletni</text><text fill="#000000" font-family="sans-serif" font-size="14" font-weight="bold" lengthAdjust="spacing" textLength="71" x="617" y="182.5889">brskalnik</text><!--MD5=[dd1102ea577516df52198fadd4362ae4]
cluster PB--><polygon filter="url(#f1c86fv0bhgu7t)" points="16,16,26,6,184,6,184,330,174,340,16,340,16,16" style="stroke:#5FB8EC;stroke-width:1.5;fill:none;"/><line style="stroke:#5FB8EC;stroke-width:1.5;fill:none;" x1="174" x2="184" y1="16" y2="6"/><line style="stroke:#5FB8EC;stroke-width:1.5;fill:none;" x1="16" x2="174" y1="16" y2="16"/><line style="stroke:#5FB8EC;stroke-width:1.5;fill:none;" x1="174" x2="174" y1="16" y2="340"/><text fill="#000000" font-family="sans-serif" font-size="14" font-style="italic" lengthAdjust="spacing" textLength="63" x="64.5" y="31.9951">«device»</text><text fill="#000000" font-family="sans-serif" font-size="14" font-weight="bold" lengthAdjust="spacing" textLength="92" x="50" y="48.292">Podatkovna</text><text fill="#000000" font-family="sans-serif" font-size="14" font-weight="bold" lengthAdjust="spacing" textLength="37" x="77.5" y="64.5889">baza</text><!--MD5=[6d31634b53f9e8a65d3bcfdf0ca80338]
cluster SpletniStreznik--><polygon filter="url(#f1c86fv0bhgu7t)" points="303,171,313,161,448,161,448,330,438,340,303,340,303,171" style="stroke:#5FB8EC;stroke-width:1.5;fill:none;"/><line style="stroke:#5FB8EC;stroke-width:1.5;fill:none;" x1="438" x2="448" y1="171" y2="161"/><line style="stroke:#5FB8EC;stroke-width:1.5;fill:none;" x1="303" x2="438" y1="171" y2="171"/><line style="stroke:#5FB8EC;stroke-width:1.5;fill:none;" x1="438" x2="438" y1="171" y2="340"/><text fill="#000000" font-family="sans-serif" font-size="14" font-style="italic" lengthAdjust="spacing" textLength="63" x="340" y="186.9951">«device»</text><text fill="#000000" font-family="sans-serif" font-size="14" font-weight="bold" lengthAdjust="spacing" textLength="54" x="344.5" y="203.292">Spletni</text><text fill="#000000" font-family="sans-serif" font-size="14" font-weight="bold" lengthAdjust="spacing" textLength="64" x="339.5" y="219.5889">strežnik</text><!--MD5=[b5228a610d4be39aad95a1254d10eb6d]
entity Predvajalnik--><rect fill="#E8F5FD" filter="url(#f1c86fv0bhgu7t)" height="88.1875" style="stroke:#5FB8EC;stroke-width:1.5;" width="111" x="601" y="196"/><polygon fill="#E8F5FD" points="695,201,695,215,707,215,707,207,701,201,695,201" style="stroke:#5FB8EC;stroke-width:1.5;"/><line style="stroke:#5FB8EC;stroke-width:1.5;" x1="701" x2="701" y1="201" y2="207"/><line style="stroke:#5FB8EC;stroke-width:1.5;" x1="707" x2="701" y1="207" y2="207"/><text fill="#000000" font-family="sans-serif" font-size="14" font-style="italic" lengthAdjust="spacing" textLength="64" x="619.5" y="221.9951">«artifact»</text><text fill="#000000" font-family="sans-serif" font-size="14" lengthAdjust="spacing" textLength="47" x="628" y="238.292">HTML5</text><text fill="#000000" font-family="sans-serif" font-size="14" lengthAdjust="spacing" textLength="37" x="633" y="254.5889">video</text><text fill="#000000" font-family="sans-serif" font-size="14" lengthAdjust="spacing" textLength="81" x="611" y="270.8857">predvajalnik</text><!--MD5=[1218c3a2fe7d40ce51732651cab346b9]
entity RelPB--><rect fill="#E8F5FD" filter="url(#f1c86fv0bhgu7t)" height="88.1875" style="stroke:#5FB8EC;stroke-width:1.5;" width="111" x="44" y="86"/><polygon fill="#E8F5FD" points="138,91,138,105,150,105,150,97,144,91,138,91" style="stroke:#5FB8EC;stroke-width:1.5;"/><line style="stroke:#5FB8EC;stroke-width:1.5;" x1="144" x2="144" y1="91" y2="97"/><line style="stroke:#5FB8EC;stroke-width:1.5;" x1="150" x2="144" y1="97" y2="97"/><text fill="#000000" font-family="sans-serif" font-size="14" font-style="italic" lengthAdjust="spacing" textLength="64" x="62.5" y="111.9951">«artifact»</text><text fill="#000000" font-family="sans-serif" font-size="14" lengthAdjust="spacing" textLength="68" x="60.5" y="128.292">Relacijska</text><text fill="#000000" font-family="sans-serif" font-size="14" lengthAdjust="spacing" textLength="81" x="54" y="144.5889">podatkovna</text><text fill="#000000" font-family="sans-serif" font-size="14" lengthAdjust="spacing" textLength="33" x="78" y="160.8857">baza</text><!--MD5=[b13f17d50cdac167bb46d40c10883800]
entity BI--><rect fill="#E8F5FD" filter="url(#f1c86fv0bhgu7t)" height="88.1875" style="stroke:#5FB8EC;stroke-width:1.5;" width="106" x="46.5" y="209"/><polygon fill="#E8F5FD" points="135.5,214,135.5,228,147.5,228,147.5,220,141.5,214,135.5,214" style="stroke:#5FB8EC;stroke-width:1.5;"/><line style="stroke:#5FB8EC;stroke-width:1.5;" x1="141.5" x2="141.5" y1="214" y2="220"/><line style="stroke:#5FB8EC;stroke-width:1.5;" x1="147.5" x2="141.5" y1="220" y2="220"/><text fill="#000000" font-family="sans-serif" font-size="14" font-style="italic" lengthAdjust="spacing" textLength="64" x="62.5" y="234.9951">«artifact»</text><text fill="#000000" font-family="sans-serif" font-size="14" lengthAdjust="spacing" textLength="42" x="73.5" y="251.292">Modul</text><text fill="#000000" font-family="sans-serif" font-size="14" lengthAdjust="spacing" textLength="63" x="63" y="267.5889">poslovne</text><text fill="#000000" font-family="sans-serif" font-size="14" lengthAdjust="spacing" textLength="76" x="56.5" y="283.8857">inteligence</text><!--MD5=[2b768cf920ecee2eebe6cef60f157368]
entity Index--><rect fill="#E8F5FD" filter="url(#f1c86fv0bhgu7t)" height="55.5938" style="stroke:#5FB8EC;stroke-width:1.5;" width="97" x="327" y="241"/><polygon fill="#E8F5FD" points="407,246,407,260,419,260,419,252,413,246,407,246" style="stroke:#5FB8EC;stroke-width:1.5;"/><line style="stroke:#5FB8EC;stroke-width:1.5;" x1="413" x2="413" y1="246" y2="252"/><line style="stroke:#5FB8EC;stroke-width:1.5;" x1="419" x2="413" y1="252" y2="252"/><text fill="#000000" font-family="sans-serif" font-size="14" font-style="italic" lengthAdjust="spacing" textLength="64" x="338.5" y="266.9951">«artifact»</text><text fill="#000000" font-family="sans-serif" font-size="14" lengthAdjust="spacing" textLength="67" x="337" y="283.292">index.hbs</text><!--MD5=[586061173626e2e19db0f7e37dc18c6b]
link PB to SpletniStreznik--><path d="M184.999,332 C185.9806,332 186.9665,332 187.9563,332 C203.7941,332 220.6528,332 237.5113,332 C254.3697,332 271.2279,332 287.0647,332 C291.024,332 294.9193,332 298.7349,332 C299.6888,332 300.6377,332 301.5814,332 C302.0533,332 302.5238,332 302.993,332 " fill="none" id="PB-SpletniStreznik" style="stroke:#000000;stroke-width:1.0;"/><text fill="#000000" font-family="sans-serif" font-size="13" lengthAdjust="spacing" textLength="69" x="209" y="328.0669">vrata 1433</text><!--MD5=[1c10d6476c40c4f6e51815dd6eb7ace1]
link SpletniStreznik to Odjemalec--><path d="M449.3325,332 C449.8103,332 450.2894,332 450.7699,332 C451.7309,332 452.6972,332 453.6686,332 C457.5541,332 461.5208,332 465.5524,332 C481.6791,332 498.8453,332 516.0113,332 C524.5942,332 533.1771,332 541.63,332 C543.7432,332 545.8483,332 547.9433,332 C548.467,332 548.9901,332 549.5125,332 C549.7738,332 550.0348,332 550.2957,332 " fill="none" id="SpletniStreznik-Odjemalec" style="stroke:#000000;stroke-width:1.0;"/><text fill="#000000" font-family="sans-serif" font-size="13" lengthAdjust="spacing" textLength="53" x="473" y="328.0669">vrata 80</text><!--MD5=[b33cc253bb823f9c1e5eff59d8b7a80f]
@startuml
skinparam backgroundcolor transparent
skinparam defaultTextAlignment center

skinparam ArrowColor black
skinparam artifact {
  backgroundcolor #e8f5fd
  bordercolor #5FB8EC
}
skinparam node {
  bordercolor #5FB8EC
}

left to right direction

node "Odjemalski\nračunalnik" as Odjemalec <<device>> {
  node "Spletni\nbrskalnik" as Brskalnik <<device>> {
    artifact "HTML5\nvideo\npredvajalnik" as Predvajalnik <<artifact>>
  }
}
node "Podatkovna\nbaza" as PB <<device>> {
  artifact "Relacijska\npodatkovna\nbaza" AS RelPB <<artifact>>
  artifact "Modul\nposlovne\ninteligence" AS BI <<artifact>>
}
node "Spletni\nstrežnik" as SpletniStreznik <<device>> {
  artifact "index.hbs" as Index <<artifact>>
}

SpletniStreznik -up- PB : vrata 1433
SpletniStreznik -down- Odjemalec : vrata 80
@enduml

PlantUML version 1.2022.0(Tue Jan 11 17:16:42 CET 2022)
(GPL source distribution)
Java Runtime: OpenJDK Runtime Environment
JVM: OpenJDK 64-Bit Server VM
Default Encoding: UTF-8
Language: en
Country: null
--></g></svg>